<?xml version="1.0" standalone="no"?>
<!DOCTYPE svg PUBLIC "-//W3C//DTD SVG 20010904//EN"
 "http://www.w3.org/TR/2001/REC-SVG-20010904/DTD/svg10.dtd">
<svg version="1.0" xmlns="http://www.w3.org/2000/svg"
 width="354.000000pt" height="354.000000pt" viewBox="0 0 354.000000 354.000000"
 preserveAspectRatio="xMidYMid meet">
<metadata>
Created by potrace 1.14, written by Peter Selinger 2001-2017
</metadata>
<g transform="translate(0.000000,354.000000) scale(0.100000,-0.100000)"
fill="#000000" stroke="none">
<path d="M1564 3437 c-7 -7 -54 -51 -105 -99 -52 -47 -116 -107 -143 -132 -28
-25 -54 -46 -59 -46 -4 0 -6 -4 -3 -8 3 -5 -6 -15 -19 -22 -13 -7 -22 -17 -19
-22 3 -4 1 -8 -4 -8 -6 0 -49 -37 -96 -83 -47 -46 -86 -82 -86 -80 0 1 -39
-35 -87 -81 -49 -46 -123 -117 -165 -157 l-78 -74 -7 -105 c-3 -58 -7 -129 -7
-157 -1 -29 -3 -53 -6 -53 -3 0 -6 -42 -6 -93 -2 -133 -9 -220 -17 -234 -4 -6
-3 -14 3 -18 6 -4 7 -11 3 -18 -6 -10 -14 -104 -17 -209 0 -21 -5 -38 -9 -38
-4 0 -3 -8 2 -19 6 -10 8 -21 5 -24 -6 -5 -17 -168 -18 -264 -1 -29 -3 -53 -6
-53 -3 0 -5 -26 -6 -58 0 -31 -3 -100 -7 -152 -9 -132 -17 -261 -21 -356 l-4
-81 38 -22 c20 -11 40 -18 44 -14 3 3 6 1 6 -5 0 -7 4 -12 9 -12 5 0 53 -21
107 -47 55 -26 102 -46 107 -45 4 1 7 -2 7 -8 0 -5 4 -10 10 -10 5 0 49 -19
97 -42 49 -24 90 -43 93 -43 3 -1 68 -31 145 -69 245 -119 282 -136 294 -136
6 0 11 -4 11 -9 0 -7 41 -28 70 -35 3 -1 58 -27 122 -58 65 -31 123 -58 130
-59 16 -3 68 21 68 31 0 4 13 13 29 20 16 6 32 18 35 27 3 8 10 11 16 8 5 -3
10 -2 10 3 0 8 54 47 84 61 5 2 16 10 25 18 42 38 77 63 87 63 6 0 21 11 34
25 13 14 29 25 37 25 7 0 13 3 13 8 0 4 20 20 45 35 25 16 45 34 45 40 0 5 3
8 6 4 6 -6 146 91 152 105 2 5 8 8 14 8 11 0 81 51 86 63 2 4 10 7 18 7 8 0
14 3 14 8 0 4 25 23 55 41 30 19 55 39 55 43 0 4 6 8 13 8 7 0 24 11 39 25 15
14 32 25 37 25 6 0 15 8 20 18 6 9 11 13 11 9 0 -8 13 1 51 36 10 9 24 17 29
17 6 0 10 5 10 10 0 6 7 10 15 10 8 0 15 5 15 10 0 6 7 10 15 10 20 0 22 18
11 105 -3 28 -8 74 -12 103 -6 55 -11 87 -14 87 -1 0 -3 14 -5 31 -5 52 -16
137 -21 169 -3 17 -5 41 -4 54 0 13 -6 31 -12 39 -11 13 -11 14 1 7 11 -6 12
-5 5 6 -5 8 -9 30 -11 49 -2 34 -5 59 -18 150 -4 25 -8 59 -10 75 -2 17 -6 46
-9 65 -10 66 -17 115 -22 160 -5 47 -11 85 -14 85 -1 0 -3 16 -5 35 -3 43 -13
122 -21 181 -4 24 -6 52 -6 62 1 28 -26 80 -50 99 -13 9 -51 40 -85 68 -35 28
-63 48 -63 46 0 -3 -15 8 -32 24 -68 62 -78 70 -87 70 -5 0 -11 3 -13 8 -1 4
-30 27 -63 52 -33 25 -64 51 -68 57 -4 7 -12 13 -17 13 -5 0 -20 10 -34 23
-65 58 -76 67 -76 62 0 -3 -13 8 -29 24 -16 16 -31 27 -34 24 -3 -3 -12 4 -19
16 -7 12 -17 21 -23 21 -5 0 -27 15 -47 33 -52 46 -81 67 -90 67 -4 0 -8 7 -8
16 0 8 -4 12 -10 9 -5 -3 -10 -1 -10 4 0 6 -7 11 -15 11 -8 0 -15 3 -15 8 0 4
-27 27 -60 51 -33 24 -60 47 -60 52 0 5 -7 9 -15 9 -8 0 -15 5 -15 10 0 6 -7
10 -15 10 -8 0 -15 4 -15 8 0 5 -21 24 -47 42 -27 19 -50 37 -53 40 -7 9 -139
110 -142 110 -2 -1 -8 -6 -14 -13z m-14 -931 c0 -7 7 -19 15 -26 9 -7 13 -15
10 -18 -3 -3 1 -12 9 -21 8 -9 15 -19 16 -23 2 -15 79 -170 92 -185 7 -9 12
-19 11 -22 -3 -9 70 -155 79 -159 5 -2 6 -8 2 -13 -3 -5 -1 -9 5 -9 6 0 7 -7
4 -17 -4 -11 -3 -14 5 -9 7 4 12 1 12 -7 0 -16 61 -139 73 -148 5 -3 8 -9 7
-13 -1 -4 1 -12 4 -19 3 -8 9 -6 20 7 8 10 13 22 11 27 -3 4 -2 9 2 11 5 1 16
23 25 48 38 102 43 115 51 121 5 3 8 10 8 15 -1 4 12 10 27 12 23 2 31 -2 35
-17 3 -11 1 -21 -5 -23 -5 -2 -10 -10 -12 -18 -1 -8 -8 -25 -14 -38 -7 -12
-10 -26 -7 -31 3 -5 1 -11 -4 -13 -5 -1 -27 -48 -49 -103 l-39 -100 -39 -3
-39 -2 -107 218 c-60 120 -108 224 -108 230 0 7 -4 12 -9 12 -7 0 -12 9 -25
50 -6 20 -53 106 -58 108 -5 2 -8 12 -8 23 0 26 -27 14 -34 -17 -4 -13 -11
-24 -16 -24 -6 0 -10 -5 -10 -12 0 -18 -111 -242 -124 -250 -6 -4 -7 -8 -3 -8
5 0 5 -5 2 -11 -9 -14 -32 19 -39 54 -3 16 1 33 10 42 8 8 14 17 13 20 -2 7
52 126 61 135 5 5 83 161 85 170 0 3 9 20 18 38 18 33 37 43 37 18z m-357
-354 c26 -53 54 -108 62 -122 8 -14 42 -84 77 -156 41 -87 67 -130 75 -127 7
3 10 9 7 14 -3 5 0 9 5 9 6 0 11 7 11 15 0 8 5 15 10 15 6 0 10 3 9 8 -2 13
13 52 20 52 4 0 7 10 8 22 1 11 6 24 12 27 5 3 11 13 13 21 2 8 9 21 16 28 6
7 12 22 12 33 0 10 4 19 8 19 5 0 16 18 26 40 19 44 27 44 49 1 13 -27 10 -36
-92 -242 -74 -148 -112 -215 -125 -217 -10 -2 -16 0 -12 6 3 5 -11 41 -32 78
-21 38 -44 85 -52 104 -8 19 -16 37 -19 40 -3 3 -22 39 -41 80 -19 41 -38 77
-41 80 -3 3 -12 22 -20 43 -7 20 -17 37 -21 37 -4 0 -8 6 -8 13 0 29 -29 11
-45 -27 -10 -23 -17 -44 -16 -48 0 -5 -4 -8 -10 -8 -5 0 -7 -4 -4 -10 3 -5 2
-10 -2 -10 -8 0 -37 -63 -31 -66 2 -1 -4 -10 -12 -20 -9 -11 -23 -35 -32 -55
-15 -34 -15 -36 3 -47 13 -8 19 -9 19 -1 0 5 5 7 11 3 15 -9 150 -11 155 -2 3
4 15 2 28 -3 23 -11 23 -12 7 -40 -11 -21 -23 -29 -41 -28 -14 0 -27 0 -30 0
-17 -5 -273 -2 -278 3 -3 4 -1 16 6 26 7 11 12 27 12 35 0 8 4 15 10 15 5 0
13 12 16 28 4 15 10 29 13 32 6 5 134 260 136 270 3 16 67 130 73 130 4 0 28
-44 55 -98z m943 -181 c-2 -14 -5 -28 -5 -31 -2 -13 -40 -4 -49 11 -15 24 11
59 38 52 16 -4 19 -12 16 -32z m199 -87 c0 -61 4 -114 10 -120 13 -15 38 -5
31 12 -9 24 27 55 72 61 25 3 41 10 39 17 -5 14 -58 21 -66 8 -4 -7 -13 -5
-24 3 -18 13 -18 14 2 34 30 30 90 28 123 -2 23 -21 26 -32 27 -100 1 -43 -2
-77 -6 -77 -5 -1 -34 -3 -65 -5 -46 -3 -61 0 -82 16 -21 16 -26 17 -26 5 0 -8
-9 -18 -20 -21 -27 -9 -60 3 -60 21 0 8 -3 14 -7 14 -10 0 -8 194 1 209 4 6 2
11 -4 11 -8 0 -8 6 0 20 8 15 15 17 33 11 21 -8 22 -14 22 -117z m-102 -6 c-1
-85 2 -117 10 -115 7 1 13 -11 15 -26 3 -26 1 -28 -32 -25 -28 2 -36 7 -42 28
-8 28 -13 241 -7 253 3 5 16 7 31 5 l25 -3 0 -117z m-97 -60 c1 -54 -2 -99 -7
-99 -30 -5 -44 -2 -41 9 1 7 -3 12 -8 12 -7 0 -7 6 -1 19 6 11 7 30 2 47 -4
16 -5 39 0 51 5 13 4 25 -2 29 -16 10 12 35 35 32 20 -3 21 -10 22 -100z
m-821 -842 c17 0 33 -1 37 -3 9 -5 -12 -53 -24 -53 -4 0 -7 -3 -6 -7 1 -5 -4
-19 -11 -32 -13 -23 -12 -24 13 -19 14 3 23 1 20 -3 -3 -5 2 -6 10 -3 9 3 14
10 11 14 -6 10 33 25 54 21 7 -1 10 2 6 9 -4 7 -18 9 -32 5 -22 -5 -23 -4 -13
15 8 15 18 19 37 15 33 -6 43 -20 43 -67 0 -32 -3 -38 -22 -39 -38 -2 -63 3
-69 13 -4 6 -8 5 -11 -3 -6 -17 -106 -19 -113 -1 -2 6 0 12 5 12 6 0 10 5 10
12 0 6 7 19 15 28 21 23 27 57 10 57 -8 0 -12 -4 -9 -9 3 -4 -2 -5 -9 -2 -8 3
-17 14 -20 25 -4 15 -2 19 9 15 8 -3 14 0 14 7 0 7 3 8 8 2 4 -5 21 -10 37 -9z
m189 -44 c-1 -35 1 -39 12 -27 8 7 14 17 14 22 0 5 9 9 19 10 15 1 18 -3 14
-15 -4 -9 -13 -21 -20 -27 -9 -7 -10 -15 -3 -25 5 -8 10 -11 10 -6 0 6 7 1 15
-10 15 -18 15 -18 9 8 -9 39 21 79 57 76 16 -1 29 -6 29 -11 0 -5 6 -7 14 -4
9 4 12 0 9 -13 -3 -10 1 -21 8 -25 7 -5 10 -4 5 3 -3 6 -2 21 3 35 9 23 12 24
51 14 29 -8 42 -18 47 -34 4 -19 10 -22 27 -17 11 4 26 7 33 7 7 0 10 4 7 9
-3 5 -13 8 -22 6 -17 -3 -22 3 -22 21 0 9 53 7 68 -3 5 -3 9 -25 11 -50 2 -42
0 -46 -21 -47 -13 -1 -30 -2 -38 -3 -8 0 -20 10 -27 24 l-12 25 -6 -22 c-6
-20 -18 -25 -52 -22 -5 0 -10 -10 -13 -23 -10 -42 -35 -28 -35 20 1 23 -1 42
-3 42 -2 0 -13 -11 -23 -24 -18 -23 -59 -32 -59 -14 0 5 -18 5 -40 2 -25 -4
-40 -3 -40 4 0 5 -7 12 -14 15 -10 4 -13 1 -9 -9 3 -9 -1 -14 -15 -14 -18 0
-19 6 -17 68 3 85 3 84 18 79 7 -2 12 -20 11 -45z m480 -3 c18 3 22 0 23 -17
1 -9 2 -22 3 -27 7 -31 -1 -55 -18 -55 -15 0 -17 7 -14 41 4 36 2 40 -14 37
-15 -3 -19 -12 -18 -41 1 -29 -2 -37 -16 -37 -15 0 -17 9 -17 55 1 51 2 54 24
50 13 -2 23 1 23 8 0 8 3 8 9 -1 4 -8 11 -13 15 -13z m127 -2 c9 -7 19 -22 23
-35 8 -23 3 -26 -46 -22 -16 1 -28 -3 -28 -8 0 -5 16 -8 36 -7 33 3 34 2 19
-15 -28 -31 -86 -9 -91 35 -5 48 49 81 87 52z"/>
<path d="M2443 1793 c-7 -2 -13 -11 -13 -18 0 -18 32 -28 42 -13 4 7 8 9 8 3
0 -5 4 -3 9 5 17 25 -9 38 -46 23z"/>
<path d="M1400 860 c0 -5 7 -7 15 -4 8 4 15 8 15 10 0 2 -7 4 -15 4 -8 0 -15
-4 -15 -10z"/>
<path d="M1614 901 c4 -5 0 -12 -6 -15 -11 -5 -11 -7 0 -12 6 -3 10 -9 7 -14
-3 -5 2 -7 11 -6 36 5 39 56 2 56 -10 0 -17 -4 -14 -9z"/>
<path d="M1731 897 c-8 -10 -7 -19 4 -33 9 -12 14 -14 15 -6 0 7 5 10 10 7 11
-7 13 6 4 29 -7 20 -18 20 -33 3z"/>
<path d="M1840 862 c0 -5 7 -9 15 -9 8 0 15 4 15 9 0 4 -7 8 -15 8 -8 0 -15
-4 -15 -8z"/>
<path d="M2056 901 c-3 -5 5 -8 18 -7 13 0 22 4 19 9 -6 10 -31 9 -37 -2z"/>
</g>
</svg>
